<?xml version="1.0" standalone="no"?><svg xmlns="http://www.w3.org/2000/svg" viewBox="0 0 1440 320"><path fill="#0099ff" fill-opacity="1" d="M0,128L21.8,154.7C43.6,181,87,235,131,250.7C174.5,267,218,245,262,245.3C305.5,245,349,267,393,245.3C436.4,224,480,160,524,128C567.3,96,611,96,655,96C698.2,96,742,96,785,101.3C829.1,107,873,117,916,128C960,139,1004,149,1047,144C1090.9,139,1135,117,1178,117.3C1221.8,117,1265,139,1309,128C1352.7,117,1396,75,1418,53.3L1440,32L1440,0L1418.2,0C1396.4,0,1353,0,1309,0C1265.5,0,1222,0,1178,0C1134.5,0,1091,0,1047,0C1003.6,0,960,0,916,0C872.7,0,829,0,785,0C741.8,0,698,0,655,0C610.9,0,567,0,524,0C480,0,436,0,393,0C349.1,0,305,0,262,0C218.2,0,175,0,131,0C87.3,0,44,0,22,0L0,0Z"></path></svg>